<svg width="16" height="19" viewBox="0 0 16 19" fill="none" xmlns="http://www.w3.org/2000/svg">
<path d="M15.4238 8.67464C15.3193 8.77952 15.1951 8.86273 15.0584 8.91952C14.9216 8.9763 14.775 9.00553 14.627 9.00553C14.4789 9.00553 14.3323 8.9763 14.1955 8.91952C14.0588 8.86273 13.9346 8.77952 13.8301 8.67464L9.00289 3.84745V17.6287C9.00289 17.9271 8.88436 18.2132 8.67338 18.4242C8.46241 18.6352 8.17626 18.7537 7.87789 18.7537C7.57952 18.7537 7.29337 18.6352 7.08239 18.4242C6.87142 18.2132 6.75289 17.9271 6.75289 17.6287V3.84745L1.92383 8.67464C1.71248 8.88598 1.42584 9.00471 1.12695 9.00471C0.828065 9.00471 0.541421 8.88598 0.330077 8.67464C0.118732 8.46329 3.14928e-09 8.17665 0 7.87776C-3.14928e-09 7.57888 0.118732 7.29223 0.330077 7.08089L7.08008 0.330887C7.18459 0.226007 7.30878 0.142791 7.44553 0.0860097C7.58228 0.0292286 7.72889 0 7.87695 0C8.02502 0 8.17163 0.0292286 8.30837 0.0860097C8.44512 0.142791 8.56931 0.226007 8.67383 0.330887L15.4238 7.08089C15.5287 7.1854 15.6119 7.3096 15.6687 7.44634C15.7255 7.58309 15.7547 7.7297 15.7547 7.87776C15.7547 8.02583 15.7255 8.17244 15.6687 8.30918C15.6119 8.44593 15.5287 8.57012 15.4238 8.67464Z" fill="white"/>
</svg>
