<svg width="11" height="21" viewBox="0 0 11 21" fill="none" xmlns="http://www.w3.org/2000/svg">
<path d="M0.282438 18.3245C0.19222 18.4199 0.12169 18.5322 0.0748749 18.655C0.0280594 18.7777 0.00587485 18.9085 0.0095892 19.0398C0.0133035 19.1711 0.0428436 19.3003 0.0965223 19.4202C0.150201 19.5401 0.226967 19.6483 0.322438 19.7385C0.417909 19.8287 0.530216 19.8992 0.652945 19.946C0.775673 19.9928 0.906421 20.015 1.03772 20.0113C1.16902 20.0076 1.29831 19.9781 1.4182 19.9244C1.53808 19.8707 1.64622 19.7939 1.73644 19.6985L10.2364 10.6985C10.412 10.5128 10.5098 10.267 10.5098 10.0115C10.5098 9.75596 10.412 9.51014 10.2364 9.32447L1.73644 0.323469C1.64682 0.225908 1.5387 0.147126 1.41837 0.0917015C1.29805 0.0362769 1.16791 0.00531418 1.03551 0.000610352C0.903118 -0.00409348 0.771109 0.017557 0.647152 0.0643024C0.523195 0.111048 0.409762 0.181956 0.313441 0.272911C0.217121 0.363866 0.139832 0.473053 0.0860662 0.59413C0.0323 0.715206 0.00312766 0.84576 0.000243187 0.978207C-0.00264128 1.11065 0.0208194 1.24235 0.0692635 1.36566C0.117707 1.48896 0.190169 1.60141 0.282438 1.69647L8.13444 10.0115L0.282438 18.3245Z" fill="#3D50FB"/>
</svg>
