<svg width="12" height="20" viewBox="0 0 12 20" fill="none" xmlns="http://www.w3.org/2000/svg">
<path d="M11.0457 19.5131C11.3269 19.2318 11.4849 18.8503 11.4849 18.4526C11.4849 18.0548 11.3269 17.6734 11.0457 17.3921L3.62068 9.96707L11.0457 2.54207C11.3189 2.25916 11.4701 1.88026 11.4667 1.48697C11.4633 1.09367 11.3055 0.717451 11.0274 0.439339C10.7493 0.161227 10.3731 0.00347485 9.97979 5.72205e-05C9.58649 -0.00336041 9.20759 0.147831 8.92468 0.421068L0.439184 8.90657C0.157978 9.18786 4.25059e-06 9.56932 4.25059e-06 9.96707C4.25059e-06 10.3648 0.157978 10.7463 0.439184 11.0276L8.92468 19.5131C9.20598 19.7943 9.58744 19.9522 9.98518 19.9522C10.3829 19.9522 10.7644 19.7943 11.0457 19.5131Z" fill="#3D50FB"/>
</svg>
