<svg width="20" height="20" viewBox="0 0 20 20" fill="none" xmlns="http://www.w3.org/2000/svg">
<path d="M2.4 0H16.8C17.46 0 18.024 0.24 18.492 0.708C18.96 1.176 19.2 1.74 19.2 2.4V10.8C19.2 11.46 18.96 12.024 18.492 12.492C18.024 12.96 17.46 13.2 16.8 13.2H15.6L9.6 19.2V13.2H2.4C1.74 13.2 1.176 12.96 0.708 12.492C0.24 12.024 0 11.46 0 10.8V2.4C0 1.74 0.24 1.176 0.708 0.708C1.176 0.24 1.74 0 2.4 0ZM15.6 2.4H2.4V3.6H15.6V2.4ZM16.8 6H2.4V7.2H16.8V6ZM13.2 9.6H2.4V10.8H13.2V9.6Z" fill="#3D50FB"/>
</svg>
