<svg width="18" height="22" viewBox="0 0 18 22" fill="none" xmlns="http://www.w3.org/2000/svg">
<path fill-rule="evenodd" clip-rule="evenodd" d="M8.76 5.14799e-06C7.36121 -0.00185762 6.00886 0.501858 4.95213 1.41834C3.8954 2.33483 3.20548 3.60234 3.00949 4.98733C2.8135 6.37233 3.12464 7.7815 3.88559 8.95521C4.64653 10.1289 5.80601 10.9881 7.1504 11.3744C5.24 11.6064 3.6016 12.2816 2.3664 13.4992C0.7952 15.0464 0 17.352 0 20.36C0 20.5616 0.080071 20.7549 0.222599 20.8974C0.365126 21.0399 0.558435 21.12 0.76 21.12C0.961564 21.12 1.15487 21.0399 1.2974 20.8974C1.43993 20.7549 1.52 20.5616 1.52 20.36C1.52 17.608 2.2448 15.752 3.4336 14.5808C4.624 13.408 6.4032 12.8 8.76 12.8C11.1168 12.8 12.896 13.408 14.088 14.5808C15.2752 15.7536 16 17.608 16 20.36C16 20.5616 16.0801 20.7549 16.2226 20.8974C16.3651 21.0399 16.5584 21.12 16.76 21.12C16.9616 21.12 17.1549 21.0399 17.2974 20.8974C17.4399 20.7549 17.52 20.5616 17.52 20.36C17.52 17.352 16.7248 15.048 15.152 13.4992C13.92 12.2832 12.28 11.6064 10.3696 11.3744C11.7095 10.9837 12.8637 10.1233 13.6207 8.95068C14.3777 7.7781 14.6867 6.37199 14.4912 4.99007C14.2956 3.60815 13.6086 2.343 12.5559 1.4265C11.5033 0.510002 10.1557 0.00356278 8.76 5.14799e-06ZM4.48 5.8C4.48 4.66488 4.93093 3.57624 5.73358 2.77359C6.53624 1.97093 7.62487 1.52001 8.76 1.52001C9.89513 1.52001 10.9838 1.97093 11.7864 2.77359C12.5891 3.57624 13.04 4.66488 13.04 5.8C13.04 6.93513 12.5891 8.02377 11.7864 8.82642C10.9838 9.62908 9.89513 10.08 8.76 10.08C7.62487 10.08 6.53624 9.62908 5.73358 8.82642C4.93093 8.02377 4.48 6.93513 4.48 5.8Z" fill="white"/>
</svg>
