<svg width="20" height="18" viewBox="0 0 20 18" fill="none" xmlns="http://www.w3.org/2000/svg">
<path fill-rule="evenodd" clip-rule="evenodd" d="M0 4C0 2.114 -5.96046e-08 1.172 0.586 0.586C1.172 -5.96046e-08 2.114 0 4 0H16C17.886 0 18.828 -5.96046e-08 19.414 0.586C20 1.172 20 2.114 20 4C20 5.886 20 6.828 19.414 7.414C18.828 8 17.886 8 16 8H4C2.114 8 1.172 8 0.586 7.414C-5.96046e-08 6.828 0 5.886 0 4ZM4 3.25C3.80109 3.25 3.61032 3.32902 3.46967 3.46967C3.32902 3.61032 3.25 3.80109 3.25 4C3.25 4.19891 3.32902 4.38968 3.46967 4.53033C3.61032 4.67098 3.80109 4.75 4 4.75H6C6.19891 4.75 6.38968 4.67098 6.53033 4.53033C6.67098 4.38968 6.75 4.19891 6.75 4C6.75 3.80109 6.67098 3.61032 6.53033 3.46967C6.38968 3.32902 6.19891 3.25 6 3.25H4ZM8.25 4C8.25 3.80109 8.32902 3.61032 8.46967 3.46967C8.61032 3.32902 8.80109 3.25 9 3.25H16C16.1989 3.25 16.3897 3.32902 16.5303 3.46967C16.671 3.61032 16.75 3.80109 16.75 4C16.75 4.19891 16.671 4.38968 16.5303 4.53033C16.3897 4.67098 16.1989 4.75 16 4.75H9C8.80109 4.75 8.61032 4.67098 8.46967 4.53033C8.32902 4.38968 8.25 4.19891 8.25 4ZM0 14C0 12.114 -5.96046e-08 11.172 0.586 10.586C1.172 10 2.114 10 4 10H16C17.886 10 18.828 10 19.414 10.586C20 11.172 20 12.114 20 14C20 15.886 20 16.828 19.414 17.414C18.828 18 17.886 18 16 18H4C2.114 18 1.172 18 0.586 17.414C-5.96046e-08 16.828 0 15.886 0 14ZM4 13.25C3.80109 13.25 3.61032 13.329 3.46967 13.4697C3.32902 13.6103 3.25 13.8011 3.25 14C3.25 14.1989 3.32902 14.3897 3.46967 14.5303C3.61032 14.671 3.80109 14.75 4 14.75H6C6.19891 14.75 6.38968 14.671 6.53033 14.5303C6.67098 14.3897 6.75 14.1989 6.75 14C6.75 13.8011 6.67098 13.6103 6.53033 13.4697C6.38968 13.329 6.19891 13.25 6 13.25H4ZM8.25 14C8.25 13.8011 8.32902 13.6103 8.46967 13.4697C8.61032 13.329 8.80109 13.25 9 13.25H16C16.1989 13.25 16.3897 13.329 16.5303 13.4697C16.671 13.6103 16.75 13.8011 16.75 14C16.75 14.1989 16.671 14.3897 16.5303 14.5303C16.3897 14.671 16.1989 14.75 16 14.75H9C8.80109 14.75 8.61032 14.671 8.46967 14.5303C8.32902 14.3897 8.25 14.1989 8.25 14Z" fill="white"/>
</svg>
